HIERARCHY
ROOT pelvis
{
	OFFSET 0.00 0.00 0.00
	CHANNELS 6 Xposition Yposition Zposition Xrotation Yrotation Zrotation
	JOINT lfemur
	{
		OFFSET 0.00000 3.26371 0.00000
		CHANNELS 3 Xrotation Yrotation Zrotation
		JOINT ltibia
		{
			OFFSET 0.00000 0.00000 -17.39272
			CHANNELS 3 Xrotation Yrotation Zrotation
			JOINT lfoot
			{
				OFFSET 0.00000 0.00000 -17.72520
				CHANNELS 3 Xrotation Yrotation Zrotation
				JOINT ltoes
				{
					OFFSET 4.21806 0.00000 0.00000
					CHANNELS 3 Xrotation Yrotation Zrotation
				}
			}
		}
	}
	JOINT rfemur
	{
		OFFSET 0.00000 -3.26371 0.00000
		CHANNELS 3 Xrotation Yrotation Zrotation
		JOINT rtibia
		{
			OFFSET 0.00000 0.00000 -17.39272
			CHANNELS 3 Xrotation Yrotation Zrotation
			JOINT rfoot
			{
				OFFSET 0.00000 0.00000 -17.72520
				CHANNELS 3 Xrotation Yrotation Zrotation
				JOINT rtoes
				{
					OFFSET 4.21806 0.00000 0.00000
					CHANNELS 3 Xrotation Yrotation Zrotation
				}
			}
		}
	}
	JOINT thorax
	{
		OFFSET -1.96850 0.00000 6.16593
		CHANNELS 6 Xposition Yposition Zposition Xrotation Yrotation Zrotation
		JOINT head
		{
			OFFSET 0.00000 0.00000 18.21355
			CHANNELS 6 Xposition Yposition Zposition Xrotation Yrotation Zrotation
		}
		JOINT lclavicle
		{
			OFFSET 0.00000 0.00000 15.13875
			CHANNELS 3 Xrotation Yrotation Zrotation
			JOINT lhumerus
			{
				OFFSET 0.00000 7.18963 -1.52650
				CHANNELS 3 Xrotation Yrotation Zrotation
				JOINT lradius
				{
					OFFSET 0.00000 0.00000 -10.12096
					CHANNELS 3 Xrotation Yrotation Zrotation
					JOINT lhand
					{
						OFFSET 0.00000 0.00000 -10.45726
						CHANNELS 3 Xrotation Yrotation Zrotation
					}
				}
			}
		}
		JOINT rclavicle
		{
			OFFSET 0.00000 0.00000 15.13875
			CHANNELS 3 Xrotation Yrotation Zrotation
			JOINT rhumerus
			{
				OFFSET 0.00000 -7.18963 -1.52650
				CHANNELS 3 Xrotation Yrotation Zrotation
				JOINT rradius
				{
					OFFSET 0.00000 0.00000 -10.12096
					CHANNELS 3 Xrotation Yrotation Zrotation
					JOINT rhand
					{
						OFFSET 0.00000 0.00000 -10.45726
						CHANNELS 3 Xrotation Yrotation Zrotation
					}
				}
			}
		}
	}
}
MOTION
Frames: 7
Frame Time: 0.008333
 3.6662 -1.3406 31.2367 2.4896 4.0334 -14.5170 22.4841 -38.0285 44.9924 -0.0000 68.6162 0.0000 -0.0000 -6.0191 17.3403 0.0000 -27.3007 -0.0000 -19.3218 6.2191 -3.1409 -0.0000 60.0505 0.0000 0.0000 16.5610 -28.0138 -0.0000 -21.6882 -0.0000 2.7778 -0.5282 37.1348 -3.0392 5.7687 12.1292 6.4754 -0.9728 54.7272 -0.4347 -1.6711 7.1973 -7.2143 -0.0000 -28.7847 4.3049 -80.6510 -58.6946 180.0000 -66.8208 176.6589 -29.6893 11.1693 -0.0000 16.0921 -0.0000 19.6313 -40.5258 -41.8566 25.4881 0.0000 -39.2908 28.4225 21.4717 -12.9241 0.0000
 3.2680 -1.4558 31.1163 2.2376 4.6758 -16.6812 25.4084 -38.4684 47.8785 -0.0000 69.3482 0.0000 -0.0000 -5.8339 17.4207 0.0000 -26.7914 -0.0000 -20.3324 7.2098 -2.8565 -0.0000 56.2522 0.0000 -0.0000 17.3050 -26.9177 -0.0000 -22.5453 -0.0000 2.5005 -0.5552 37.0721 -2.6180 4.7181 12.9359 6.0733 -1.0827 54.6924 -0.5854 -1.2168 8.4834 -6.7185 -0.0000 -28.6985 3.3796 -81.1251 -59.4997 180.0000 -66.0993 175.1220 -28.3850 10.9745 -0.0000 16.2731 -0.0000 20.0409 -39.3433 -41.6973 28.5898 -0.0000 -41.1701 28.5714 21.5018 -13.1786 0.0000
 2.8554 -1.5800 31.0044 1.8886 5.2217 -18.8688 28.3871 -38.6906 50.5721 -0.0000 69.9971 0.0000 -0.0000 -5.3390 17.7779 0.0000 -26.9941 -0.0000 -21.2680 8.0726 -2.7340 -0.0000 52.5592 0.0000 0.0000 18.0672 -25.1855 0.0000 -23.4756 0.0000 2.2012 -0.5809 37.0135 -2.0707 3.9179 13.7314 5.6711 -1.2052 54.6576 -0.7351 -0.9464 9.8151 -6.2207 -0.0000 -28.3598 4.3008 -81.3404 -58.4386 180.0000 -65.4038 173.8420 -26.9048 10.2444 -0.0000 16.3507 -0.0000 20.2457 -38.1626 -41.5295 31.5764 0.0000 -43.5065 28.6491 21.7555 -13.4514 0.0000
 2.4422 -1.7210 30.9116 1.4910 5.6655 -21.1602 31.4254 -38.5424 53.2516 -0.0000 70.5342 0.0000 -0.0000 -4.7332 18.1307 0.0000 -27.0926 -0.0000 -22.1009 8.8229 -2.5505 -0.0000 48.9491 0.0000 -0.0000 18.8587 -23.0358 0.0000 -24.6777 -0.0000 1.8808 -0.6096 36.9602 -1.4659 3.3154 14.5482 5.2531 -1.3370 54.6321 -0.9305 -0.6313 11.1469 -5.6978 -0.0000 -27.7643 7.6350 -81.1678 -54.9543 180.0000 -64.7138 172.6709 -24.9950 8.7887 -0.0000 16.3258 -0.0000 20.2915 -36.9045 -41.3254 34.4143 -0.0000 -46.1612 28.7447 22.2834 -13.9467 0.0000
 2.0189 -1.8757 30.8392 0.9911 6.0596 -23.4470 34.4595 -38.1442 55.7348 -0.0000 70.9609 0.0000 -0.0000 -4.0704 18.4723 0.0000 -27.1358 -0.0000 -22.6993 9.4646 -2.2858 -0.0000 45.4781 0.0000 0.0000 19.6010 -20.6529 -0.0000 -26.0854 -0.0000 1.5359 -0.6370 36.9111 -0.7579 2.9248 15.3660 4.8274 -1.4792 54.6140 -1.0945 -0.3930 12.4849 -5.1161 -0.0000 -26.9318 12.2307 -80.5519 -50.1702 180.0000 -64.0286 171.7137 -22.9937 6.6663 -0.0000 16.2139 -0.0000 20.1068 -35.6846 -41.0488 36.9571 0.0000 -49.2218 28.9788 23.0612 -14.5437 0.0000
 1.5909 -2.0423 30.7888 0.3821 6.4066 -25.6744 37.3905 -37.5377 57.8922 -0.0000 71.2660 0.0000 -0.0000 -3.3505 18.8023 0.0000 -27.1098 0.0000 -23.0261 10.0519 -1.8852 -0.0000 42.1615 0.0000 0.0000 20.2719 -18.2209 -0.0000 -27.5927 -0.0000 1.1735 -0.6614 36.8665 0.0532 2.7283 16.0941 4.3951 -1.6268 54.6021 -1.2279 -0.2026 13.8140 -4.5330 -0.0000 -25.8489 17.2246 -79.3824 -44.9638 180.0000 -63.3395 170.8148 -21.0517 3.8465 -0.0000 16.0352 -0.0000 19.7613 -34.5956 -40.5385 39.1152 -0.0000 -52.8164 29.3932 24.1156 -15.2740 0.0000
 1.1564 -2.2021 30.7624 -0.1745 6.6755 -27.7665 39.8939 -36.8899 59.5425 -0.0000 71.3762 0.0000 -0.0000 -2.5231 19.1916 0.0000 -27.1547 -0.0000 -23.2551 10.5513 -1.3927 -0.0000 39.1026 0.0000 0.0000 20.9358 -15.8151 0.0000 -29.1176 -0.0000 0.7864 -0.6797 36.8284 0.7856 2.7463 16.7156 3.9514 -1.7792 54.6016 -1.3442 -0.0394 15.0866 -3.9589 -0.0000 -24.5443 21.3791 -77.6877 -40.5334 180.0000 -62.6540 169.7148 -19.6909 0.7330 0.0000 15.7756 -0.0000 19.1143 -33.6429 -39.9196 40.9209 0.0000 -56.8521 29.8608 25.3361 -16.2152 0.0000
